<svg width="300" height="274" viewBox="0 0 300 274" fill="none" xmlns="http://www.w3.org/2000/svg">
<mask id="mask0_3_656" style="mask-type:luminance" maskUnits="userSpaceOnUse" x="0" y="0" width="300" height="274">
<path d="M211.831 0.149333L0 140.55L88.0694 273.426L299.9 133.025L211.831 0.149333Z" fill="white"/>
</mask>
<g mask="url(#mask0_3_656)">
<path d="M236.649 124.816C236.568 124.342 236.462 123.885 236.369 123.421C236.276 122.955 236.134 122.092 235.997 121.442C235.858 120.792 235.641 119.726 235.431 118.85C235.223 117.973 235.157 117.608 235.009 117.002C234.786 116.135 234.572 115.34 234.327 114.468C234.157 113.917 234.023 113.362 233.862 112.824C233.586 111.934 233.3 111.09 233.013 110.245C232.857 109.801 232.719 109.328 232.571 108.898C232.173 107.796 231.743 106.734 231.317 105.708C231.228 105.573 231.129 105.424 231.133 105.225C230.632 104.055 230.098 102.925 229.546 101.827C229.34 101.515 229.142 101.217 229.04 100.855C228.649 100.119 228.277 99.409 227.845 98.6999C227.593 98.3201 227.351 97.9538 227.108 97.5876C226.721 97.0046 226.335 96.4217 225.957 95.8519C225.58 95.2825 225.454 95.0926 225.211 94.7264C224.969 94.3601 224.51 93.6686 224.065 93.2025C223.619 92.7369 223.484 92.5334 223.192 92.1808C222.9 91.8277 222.395 91.3032 221.991 90.8688C221.585 90.4353 221.387 90.2541 221.072 89.9556C220.757 89.6566 220.243 89.1778 219.82 88.8335L218.878 88.0329C218.432 87.6842 217.982 87.3584 217.504 86.9921L216.535 86.3264C216.057 86.0186 215.561 85.7425 215.075 85.4795C214.587 85.217 214.443 85.1171 214.114 84.9447C213.784 84.7728 213.018 84.4416 212.453 84.2108C212.183 84.0973 211.917 83.961 211.632 83.8572C210.787 83.5397 209.923 83.2714 209.047 83.0527L181.263 76.0947C182.117 76.33 182.958 76.6129 183.78 76.9441C184.064 77.0478 184.331 77.1842 184.615 77.2889C185.166 77.5285 185.73 77.7598 186.284 78.0364C186.839 78.3131 186.906 78.3856 187.235 78.5575C187.564 78.7299 188.205 79.1054 188.682 79.4132C189.16 79.7215 189.332 79.8618 189.651 80.079C189.971 80.2962 190.553 80.7306 191.026 81.1197C191.499 81.5088 191.671 81.6486 191.981 81.9116C192.292 82.1736 192.828 82.6582 193.233 83.0337C193.639 83.4087 193.851 83.6395 194.152 83.9468C194.453 84.2546 194.948 84.8244 195.349 85.2812C195.749 85.7376 195.929 85.9504 196.213 86.2894C196.496 86.6288 196.995 87.2931 197.373 87.8045C197.751 88.3149 197.867 88.5501 198.119 88.93C198.37 89.3098 198.882 90.0827 199.269 90.6657C199.512 91.0319 199.754 91.3981 200.006 91.7775C200.446 92.4423 200.797 93.2054 201.186 93.9423C201.384 94.2408 201.583 94.5384 201.708 94.9051C202.259 96.0028 202.779 97.142 203.281 98.3118L203.479 98.7861C203.904 99.8118 204.321 100.882 204.719 101.985L205.166 103.309C205.46 104.167 205.747 105.012 206.01 105.911C206.171 106.448 206.319 106.995 206.474 107.555C206.707 108.377 206.934 109.222 207.157 110.089C207.304 110.694 207.451 111.299 207.594 111.927C207.735 112.555 207.975 113.625 208.157 114.52L208.53 116.498C208.717 117.487 208.889 118.485 209.035 119.501C209.109 119.94 209.185 120.377 209.246 120.825C209.476 122.351 209.665 123.905 209.844 125.503L237.629 132.462C237.464 130.854 237.26 129.309 237.031 127.783C236.969 127.336 236.894 126.897 236.842 126.465L236.649 124.816Z" fill="#6D9AFF"/>
<path d="M102.772 249.345L102.709 247.923C102.635 245.923 102.574 243.913 102.595 241.85C102.547 239.279 102.539 236.682 102.573 234.057L102.658 231.678C102.705 229.95 102.752 228.22 102.835 226.487C102.888 225.417 102.964 224.351 103.027 223.295C103.104 221.877 103.136 220.509 103.295 219.038C103.454 217.566 103.484 216.727 103.579 215.571C103.673 214.415 103.831 213.003 103.94 211.72L104.337 208.159C104.472 206.917 104.626 205.645 104.77 204.417C104.915 203.189 105.104 201.971 105.267 200.77L105.786 197.128C105.966 195.895 106.129 194.695 106.359 193.449C106.589 192.203 106.729 191.056 106.978 189.838C107.226 188.619 107.406 187.387 107.646 186.155L108.331 182.558L109.085 178.916L109.866 175.315L110.71 171.691C110.995 170.467 111.32 169.335 111.582 168.049L112.485 164.483L113.456 160.815L114.417 157.426C114.778 156.113 115.162 154.804 115.546 153.495L116.539 150.242C116.973 148.862 117.398 147.467 117.854 146.091L118.878 142.973L120.434 138.448L121.453 135.645C122.374 133.083 123.296 130.52 124.263 128.083L124.567 127.276C124.764 126.775 124.978 126.301 125.16 125.81C125.821 124.181 126.482 122.553 127.174 120.942L128.163 118.686C128.709 117.387 129.234 116.025 129.858 114.811L131.496 111.383L132.944 108.316L134.637 104.968L136.143 102.018L137.889 98.7528L139.45 95.8838C140.032 94.8148 140.654 93.7779 141.268 92.727L142.864 89.9714L144.736 86.8959C145.29 86.0208 145.826 85.1188 146.376 84.2666C146.926 83.4143 147.689 82.2645 148.312 81.2856L149.974 78.7789L151.991 75.9197L153.675 73.5343C154.388 72.5744 155.114 71.6632 155.836 70.7169C156.394 69.9956 156.948 69.2373 157.515 68.5297C158.886 66.8213 160.274 65.1396 161.686 63.5213L162.552 62.557C163.668 61.2903 164.793 60.0367 165.944 58.825C167.096 57.6123 168.416 56.2692 169.677 55.0434C170.937 53.8175 171.952 52.8713 173.099 51.8578C174.146 50.9296 175.184 50.0466 176.217 49.186L177.241 48.3707L179.547 46.6862L180.525 46.038C181.326 45.507 182.101 44.9936 182.83 44.4125L183.646 43.872C184.637 43.215 185.602 42.5751 186.553 41.9452L187.137 41.5579C187.79 41.1256 188.482 40.7835 189.143 40.4238C190.161 39.8658 191.171 39.3528 192.162 38.8716L193.062 38.4307C194.334 37.8417 195.583 37.3065 196.819 36.8391L197.728 36.5293C198.642 36.1969 199.573 35.8917 200.487 35.6178L201.767 35.2772C202.549 35.0708 203.327 34.8873 204.114 34.7168L205.412 34.4619C206.203 34.328 207.002 34.2077 207.798 34.1098C208.16 34.0651 208.548 34.0025 208.919 33.9719C210.067 33.8747 211.233 33.8041 212.363 33.7972C213.515 33.795 214.653 33.8601 215.782 33.9706C216.13 33.9938 216.474 34.0394 216.816 34.0855C217.629 34.1906 218.428 34.3051 219.21 34.451C219.991 34.5969 220.538 34.6835 221.196 34.8519L193.412 27.8937C192.943 27.7752 192.482 27.6707 192.008 27.5753L191.425 27.4928C190.635 27.3334 189.836 27.2189 189.032 27.1274C188.788 27.113 188.553 27.0542 188.315 27.0174L187.998 27.0125C186.869 26.902 185.739 26.8504 184.587 26.8526C183.458 26.8595 182.306 26.9207 181.143 27.0273L180.846 27.0491C180.584 27.0666 180.299 27.1383 180.023 27.1653C179.241 27.2537 178.44 27.3746 177.636 27.5173L177.058 27.5884L176.338 27.7723C175.565 27.9333 174.787 28.1174 173.991 28.3327L173.191 28.5114L172.712 28.6732C171.798 28.9471 170.879 29.2434 169.952 29.5847C169.748 29.7201 169.477 29.724 169.233 29.8271L169.083 29.9264C167.835 30.4026 166.585 30.9378 165.327 31.5179L165.138 31.6439L164.499 32.0673C163.494 32.5574 162.485 33.0704 161.48 33.6195L160.936 33.9797L159.533 34.812L158.962 35.1904C158.12 35.7487 157.278 36.307 156.407 36.8836L155.226 37.6666L152.934 39.2832L151.956 39.9319L151.249 40.4003L149.718 41.6299L148.707 42.4363C147.66 43.3059 146.623 44.1885 145.576 45.117C144.429 46.1307 143.296 47.194 142.153 48.3027C141.01 49.4115 139.872 50.556 138.739 51.7365L138.421 52.0838C137.269 53.2959 136.144 54.5495 135.029 55.8158L134.135 56.7985C132.724 58.4169 131.349 60.0893 129.979 61.7977L129.802 61.9151L128.249 63.9396C127.541 64.8771 126.815 65.7883 126.112 66.7619C125.408 67.7359 124.967 68.3403 124.418 69.1336L122.402 71.9919C121.834 72.8174 121.284 73.6697 120.735 74.5219C120.185 75.3742 119.417 76.4885 118.79 77.4893C118.163 78.4906 117.69 79.2528 117.145 80.1411L115.263 83.2034L113.668 85.9589C113.063 87.0235 112.453 88.0521 111.849 89.1162L110.303 91.976C109.716 93.0674 109.134 94.1364 108.556 95.2414L107.036 98.2005L105.344 101.547L103.91 104.606C103.373 105.742 102.84 106.857 102.271 108.034L101.894 108.85L100.563 111.918L99.5885 114.165C98.896 115.775 98.2351 117.404 97.5738 119.032C97.378 119.534 97.1637 120.007 96.9816 120.499L96.9129 120.662L96.6621 121.316C95.7017 123.8 94.7647 126.321 93.852 128.877L93.4463 129.946L92.8483 131.67L91.2777 136.205C91.1043 136.769 90.8988 137.314 90.7118 137.888L90.2544 139.322L88.9478 143.487C88.7286 144.16 88.509 144.832 88.3259 145.5L87.9601 146.718L86.8439 150.64L86.1669 152.923L85.8694 154.038L84.9119 157.697L84.2661 160.175L83.9958 161.272C83.7022 162.481 83.373 163.636 83.1377 164.904L82.528 167.436L82.2937 168.528L81.513 172.13C81.329 172.974 81.1317 173.827 80.9705 174.675L80.7455 175.781L80.0593 179.378L79.4408 181.837L79.2557 182.975L78.6645 186.568L78.2447 189.091L78.0913 190.246C77.9018 191.465 77.7392 192.665 77.5721 193.889C77.4382 194.719 77.3135 195.563 77.2566 196.362L77.1304 197.5C76.9721 198.737 76.8231 199.987 76.6877 201.228L76.3989 203.743L76.2957 204.826C76.1647 206.103 76.0424 207.394 75.9382 208.654C75.8725 209.498 75.7833 210.338 75.6674 211.195L75.6007 212.157C75.5009 213.569 75.4234 214.987 75.3372 216.391C75.2846 217.226 75.2092 218.057 75.1702 218.883L75.1541 219.597C75.0708 221.33 75.0153 223.046 74.9686 224.775C74.9569 225.465 74.9092 226.16 74.8619 226.797L74.8566 227.113C74.8317 229.731 74.8346 232.332 74.8648 234.915L74.8634 235.149C74.8931 237.082 74.9359 239.006 75.0056 240.91L75.0596 242.319L75.1259 244.012C75.1945 245.178 75.2759 246.334 75.3577 247.489L75.4298 248.749C75.5817 250.601 75.76 252.434 75.9523 254.258L76.057 255.302L103.842 262.26C103.61 260.11 103.428 257.947 103.264 255.753L103.178 254.502C102.99 252.772 102.856 251.065 102.772 249.345Z" fill="url(#paint0_linear_3_656)"/>
<path d="M103.732 262.273C96.0762 190.563 125.588 97.8099 169.666 55.0886C213.743 12.3681 255.67 35.8537 263.326 107.563L237.656 132.385C232.462 83.7138 204.004 67.7743 174.1 96.7687C144.194 125.763 124.163 188.713 129.362 237.362L103.732 262.273Z" fill="url(#paint1_linear_3_656)"/>
</g>
<defs>
<linearGradient id="paint0_linear_3_656" x1="66.2846" y1="58.5172" x2="153.829" y2="150.741" gradientUnits="userSpaceOnUse">
<stop stop-color="#4C83FF"/>
<stop offset="1" stop-color="#4C83FF"/>
</linearGradient>
<linearGradient id="paint1_linear_3_656" x1="106125" y1="-9187.11" x2="99577.1" y2="-18060.4" gradientUnits="userSpaceOnUse">
<stop stop-color="#7AA1FA"/>
<stop offset="0.49" stop-color="#215CE3"/>
<stop offset="0.99" stop-color="#254898"/>
</linearGradient>
</defs>
</svg>
