<svg width="1000" height="173" viewBox="0 0 1000 173" fill="none" xmlns="http://www.w3.org/2000/svg">
<path d="M108.36 70V61.216H120.312C122.52 61.216 124.248 60.568 125.496 59.272C126.744 57.976 127.368 56.392 127.368 54.52C127.368 53.224 127.08 52.072 126.504 51.064C125.928 50.056 125.112 49.264 124.056 48.688C123.048 48.112 121.8 47.824 120.312 47.824H108.36V39.256H119.376C121.248 39.256 122.76 38.8 123.912 37.888C125.064 36.928 125.64 35.488 125.64 33.568C125.64 31.696 125.064 30.304 123.912 29.392C122.76 28.432 121.248 27.952 119.376 27.952H108.36V19.168H121.536C124.8 19.168 127.56 19.768 129.816 20.968C132.12 22.168 133.872 23.776 135.072 25.792C136.272 27.808 136.872 30.04 136.872 32.488C136.872 35.608 135.864 38.248 133.848 40.408C131.832 42.568 128.856 44.056 124.92 44.872L125.208 41.056C129.48 41.872 132.768 43.528 135.072 46.024C137.424 48.52 138.6 51.592 138.6 55.24C138.6 58.024 137.904 60.544 136.512 62.8C135.168 65.008 133.2 66.76 130.608 68.056C128.064 69.352 124.992 70 121.392 70H108.36ZM99.7202 70V19.168H110.88V70H99.7202ZM160.389 70.792C157.173 70.792 154.317 70.144 151.821 68.848C149.373 67.504 147.453 65.68 146.061 63.376C144.669 61.024 143.973 58.336 143.973 55.312V35.008H154.989V55.168C154.989 56.368 155.181 57.4 155.565 58.264C155.997 59.128 156.621 59.8 157.437 60.28C158.253 60.76 159.237 61 160.389 61C162.021 61 163.317 60.496 164.277 59.488C165.237 58.432 165.717 56.992 165.717 55.168V35.008H176.733V55.24C176.733 58.312 176.037 61.024 174.645 63.376C173.253 65.68 171.333 67.504 168.885 68.848C166.437 70.144 163.605 70.792 160.389 70.792ZM183.65 70V35.008H194.666V70H183.65ZM189.194 30.184C187.466 30.184 186.026 29.608 184.874 28.456C183.77 27.256 183.218 25.816 183.218 24.136C183.218 22.408 183.77 20.968 184.874 19.816C186.026 18.664 187.466 18.088 189.194 18.088C190.922 18.088 192.338 18.664 193.442 19.816C194.546 20.968 195.098 22.408 195.098 24.136C195.098 25.816 194.546 27.256 193.442 28.456C192.338 29.608 190.922 30.184 189.194 30.184ZM202.423 70V17.728H213.439V70H202.423ZM236.101 70.72C232.789 70.72 229.837 69.928 227.245 68.344C224.701 66.76 222.685 64.6 221.197 61.864C219.757 59.128 219.037 56.008 219.037 52.504C219.037 49 219.757 45.88 221.197 43.144C222.685 40.408 224.701 38.248 227.245 36.664C229.837 35.08 232.789 34.288 236.101 34.288C238.501 34.288 240.661 34.744 242.581 35.656C244.549 36.568 246.157 37.84 247.405 39.472C248.701 41.056 249.421 42.88 249.565 44.944V59.704C249.421 61.768 248.725 63.64 247.477 65.32C246.229 66.952 244.621 68.272 242.653 69.28C240.685 70.24 238.501 70.72 236.101 70.72ZM238.045 60.784C239.629 60.784 240.997 60.448 242.149 59.776C243.301 59.056 244.213 58.072 244.885 56.824C245.557 55.576 245.893 54.136 245.893 52.504C245.893 50.872 245.557 49.456 244.885 48.256C244.261 47.008 243.349 46.024 242.149 45.304C240.997 44.584 239.653 44.224 238.117 44.224C236.581 44.224 235.213 44.584 234.013 45.304C232.861 46.024 231.925 47.008 231.205 48.256C230.533 49.504 230.197 50.92 230.197 52.504C230.197 54.088 230.533 55.504 231.205 56.752C231.877 58 232.813 58.984 234.013 59.704C235.213 60.424 236.557 60.784 238.045 60.784ZM256.261 70H245.461V60.568L247.117 52.072L245.245 43.576V17.728H256.261V70ZM292.344 70.72C289.128 70.72 286.248 69.928 283.704 68.344C281.208 66.76 279.216 64.6 277.728 61.864C276.288 59.128 275.568 56.008 275.568 52.504C275.568 49 276.288 45.88 277.728 43.144C279.216 40.408 281.208 38.248 283.704 36.664C286.248 35.08 289.128 34.288 292.344 34.288C294.696 34.288 296.808 34.744 298.68 35.656C300.6 36.568 302.16 37.84 303.36 39.472C304.56 41.056 305.232 42.88 305.376 44.944V60.064C305.232 62.128 304.56 63.976 303.36 65.608C302.208 67.192 300.672 68.44 298.752 69.352C296.832 70.264 294.696 70.72 292.344 70.72ZM294.576 60.784C296.928 60.784 298.824 60.016 300.264 58.48C301.704 56.896 302.424 54.904 302.424 52.504C302.424 50.872 302.088 49.432 301.416 48.184C300.792 46.936 299.88 45.976 298.68 45.304C297.528 44.584 296.184 44.224 294.648 44.224C293.112 44.224 291.744 44.584 290.544 45.304C289.392 45.976 288.456 46.936 287.736 48.184C287.064 49.432 286.728 50.872 286.728 52.504C286.728 54.088 287.064 55.504 287.736 56.752C288.408 58 289.344 58.984 290.544 59.704C291.744 60.424 293.088 60.784 294.576 60.784ZM301.992 70V60.568L303.648 52.072L301.992 43.576V35.008H312.792V70H301.992ZM335.452 70.72C332.14 70.72 329.188 69.928 326.596 68.344C324.052 66.76 322.036 64.6 320.548 61.864C319.108 59.128 318.388 56.008 318.388 52.504C318.388 49 319.108 45.88 320.548 43.144C322.036 40.408 324.052 38.248 326.596 36.664C329.188 35.08 332.14 34.288 335.452 34.288C337.852 34.288 340.012 34.744 341.932 35.656C343.9 36.568 345.508 37.84 346.756 39.472C348.052 41.056 348.772 42.88 348.916 44.944V59.704C348.772 61.768 348.076 63.64 346.828 65.32C345.58 66.952 343.972 68.272 342.004 69.28C340.036 70.24 337.852 70.72 335.452 70.72ZM337.396 60.784C338.98 60.784 340.348 60.448 341.5 59.776C342.652 59.056 343.564 58.072 344.236 56.824C344.908 55.576 345.244 54.136 345.244 52.504C345.244 50.872 344.908 49.456 344.236 48.256C343.612 47.008 342.7 46.024 341.5 45.304C340.348 44.584 339.004 44.224 337.468 44.224C335.932 44.224 334.564 44.584 333.364 45.304C332.212 46.024 331.276 47.008 330.556 48.256C329.884 49.504 329.548 50.92 329.548 52.504C329.548 54.088 329.884 55.504 330.556 56.752C331.228 58 332.164 58.984 333.364 59.704C334.564 60.424 335.908 60.784 337.396 60.784ZM355.612 70H344.812V60.568L346.468 52.072L344.596 43.576V17.728H355.612V70ZM374.384 70L359.552 35.008H371.432L381.512 64.168H376.328L386.408 35.008H398.072L383.24 69.928L374.384 70ZM415.672 70.72C412.456 70.72 409.576 69.928 407.032 68.344C404.536 66.76 402.544 64.6 401.056 61.864C399.616 59.128 398.896 56.008 398.896 52.504C398.896 49 399.616 45.88 401.056 43.144C402.544 40.408 404.536 38.248 407.032 36.664C409.576 35.08 412.456 34.288 415.672 34.288C418.024 34.288 420.136 34.744 422.008 35.656C423.928 36.568 425.488 37.84 426.688 39.472C427.888 41.056 428.56 42.88 428.704 44.944V60.064C428.56 62.128 427.888 63.976 426.688 65.608C425.536 67.192 424 68.44 422.08 69.352C420.16 70.264 418.024 70.72 415.672 70.72ZM417.904 60.784C420.256 60.784 422.152 60.016 423.592 58.48C425.032 56.896 425.752 54.904 425.752 52.504C425.752 50.872 425.416 49.432 424.744 48.184C424.12 46.936 423.208 45.976 422.008 45.304C420.856 44.584 419.512 44.224 417.976 44.224C416.44 44.224 415.072 44.584 413.872 45.304C412.72 45.976 411.784 46.936 411.064 48.184C410.392 49.432 410.056 50.872 410.056 52.504C410.056 54.088 410.392 55.504 411.064 56.752C411.736 58 412.672 58.984 413.872 59.704C415.072 60.424 416.416 60.784 417.904 60.784ZM425.32 70V60.568L426.976 52.072L425.32 43.576V35.008H436.12V70H425.32ZM466.988 70V50.056C466.988 48.232 466.412 46.768 465.26 45.664C464.156 44.512 462.74 43.936 461.012 43.936C459.812 43.936 458.756 44.2 457.844 44.728C456.932 45.208 456.212 45.928 455.684 46.888C455.156 47.8 454.892 48.856 454.892 50.056L450.644 47.968C450.644 45.232 451.244 42.832 452.444 40.768C453.644 38.704 455.3 37.12 457.412 36.016C459.572 34.864 461.996 34.288 464.684 34.288C467.276 34.288 469.556 34.912 471.524 36.16C473.54 37.36 475.124 38.968 476.276 40.984C477.428 43 478.004 45.208 478.004 47.608V70H466.988ZM443.876 70V35.008H454.892V70H443.876ZM501.999 70.792C498.399 70.792 495.135 70 492.207 68.416C489.279 66.832 486.975 64.648 485.295 61.864C483.615 59.08 482.775 55.96 482.775 52.504C482.775 49 483.615 45.88 485.295 43.144C487.023 40.36 489.351 38.176 492.279 36.592C495.207 35.008 498.495 34.216 502.143 34.216C504.879 34.216 507.375 34.696 509.631 35.656C511.935 36.568 513.975 37.96 515.751 39.832L508.695 46.888C507.879 45.976 506.919 45.304 505.815 44.872C504.759 44.44 503.535 44.224 502.143 44.224C500.559 44.224 499.143 44.584 497.895 45.304C496.695 45.976 495.735 46.936 495.015 48.184C494.343 49.384 494.007 50.8 494.007 52.432C494.007 54.064 494.343 55.504 495.015 56.752C495.735 58 496.719 58.984 497.967 59.704C499.215 60.424 500.607 60.784 502.143 60.784C503.583 60.784 504.855 60.544 505.959 60.064C507.111 59.536 508.095 58.816 508.911 57.904L515.895 64.96C514.071 66.88 512.007 68.344 509.703 69.352C507.399 70.312 504.831 70.792 501.999 70.792ZM537.234 70.792C533.442 70.792 530.058 70.024 527.082 68.488C524.154 66.904 521.85 64.72 520.17 61.936C518.49 59.152 517.65 56.008 517.65 52.504C517.65 49 518.466 45.88 520.098 43.144C521.778 40.36 524.034 38.176 526.866 36.592C529.698 35.008 532.89 34.216 536.442 34.216C539.898 34.216 542.946 34.96 545.586 36.448C548.226 37.936 550.29 40 551.778 42.64C553.314 45.28 554.082 48.304 554.082 51.712C554.082 52.336 554.034 53.008 553.938 53.728C553.89 54.4 553.77 55.192 553.578 56.104L523.41 56.176V48.616L548.898 48.544L544.146 51.712C544.098 49.696 543.786 48.04 543.21 46.744C542.634 45.4 541.77 44.392 540.618 43.72C539.514 43 538.146 42.64 536.514 42.64C534.786 42.64 533.274 43.048 531.978 43.864C530.73 44.632 529.746 45.736 529.026 47.176C528.354 48.616 528.018 50.368 528.018 52.432C528.018 54.496 528.378 56.272 529.098 57.76C529.866 59.2 530.922 60.328 532.266 61.144C533.658 61.912 535.29 62.296 537.162 62.296C538.89 62.296 540.45 62.008 541.842 61.432C543.234 60.808 544.458 59.896 545.514 58.696L551.562 64.744C549.834 66.76 547.746 68.272 545.298 69.28C542.85 70.288 540.162 70.792 537.234 70.792ZM574.304 70.72C570.992 70.72 568.04 69.928 565.448 68.344C562.904 66.76 560.888 64.6 559.4 61.864C557.96 59.128 557.24 56.008 557.24 52.504C557.24 49 557.96 45.88 559.4 43.144C560.888 40.408 562.904 38.248 565.448 36.664C568.04 35.08 570.992 34.288 574.304 34.288C576.704 34.288 578.864 34.744 580.784 35.656C582.752 36.568 584.36 37.84 585.608 39.472C586.904 41.056 587.624 42.88 587.768 44.944V59.704C587.624 61.768 586.928 63.64 585.68 65.32C584.432 66.952 582.824 68.272 580.856 69.28C578.888 70.24 576.704 70.72 574.304 70.72ZM576.248 60.784C577.832 60.784 579.2 60.448 580.352 59.776C581.504 59.056 582.416 58.072 583.088 56.824C583.76 55.576 584.096 54.136 584.096 52.504C584.096 50.872 583.76 49.456 583.088 48.256C582.464 47.008 581.552 46.024 580.352 45.304C579.2 44.584 577.856 44.224 576.32 44.224C574.784 44.224 573.416 44.584 572.216 45.304C571.064 46.024 570.128 47.008 569.408 48.256C568.736 49.504 568.4 50.92 568.4 52.504C568.4 54.088 568.736 55.504 569.408 56.752C570.08 58 571.016 58.984 572.216 59.704C573.416 60.424 574.76 60.784 576.248 60.784ZM594.464 70H583.664V60.568L585.32 52.072L583.448 43.576V17.728H594.464V70ZM632.851 70.792C629.251 70.792 625.987 70 623.059 68.416C620.131 66.832 617.827 64.648 616.147 61.864C614.467 59.08 613.627 55.96 613.627 52.504C613.627 49 614.467 45.88 616.147 43.144C617.875 40.36 620.203 38.176 623.131 36.592C626.059 35.008 629.347 34.216 632.995 34.216C635.731 34.216 638.227 34.696 640.483 35.656C642.787 36.568 644.827 37.96 646.603 39.832L639.547 46.888C638.731 45.976 637.771 45.304 636.667 44.872C635.611 44.44 634.387 44.224 632.995 44.224C631.411 44.224 629.995 44.584 628.747 45.304C627.547 45.976 626.587 46.936 625.867 48.184C625.195 49.384 624.859 50.8 624.859 52.432C624.859 54.064 625.195 55.504 625.867 56.752C626.587 58 627.571 58.984 628.819 59.704C630.067 60.424 631.459 60.784 632.995 60.784C634.435 60.784 635.707 60.544 636.811 60.064C637.963 59.536 638.947 58.816 639.763 57.904L646.747 64.96C644.923 66.88 642.859 68.344 640.555 69.352C638.251 70.312 635.683 70.792 632.851 70.792ZM674.762 70V50.056C674.762 48.232 674.186 46.768 673.034 45.664C671.93 44.512 670.514 43.936 668.786 43.936C667.586 43.936 666.53 44.2 665.618 44.728C664.706 45.208 663.986 45.928 663.458 46.888C662.93 47.8 662.666 48.856 662.666 50.056L658.418 47.968C658.418 45.232 658.994 42.832 660.146 40.768C661.298 38.704 662.906 37.12 664.97 36.016C667.034 34.864 669.41 34.288 672.098 34.288C674.834 34.288 677.234 34.864 679.298 36.016C681.362 37.12 682.946 38.68 684.05 40.696C685.202 42.664 685.778 44.968 685.778 47.608V70H674.762ZM651.65 70V17.728H662.666V70H651.65ZM707.469 70.72C704.253 70.72 701.373 69.928 698.829 68.344C696.333 66.76 694.341 64.6 692.853 61.864C691.413 59.128 690.693 56.008 690.693 52.504C690.693 49 691.413 45.88 692.853 43.144C694.341 40.408 696.333 38.248 698.829 36.664C701.373 35.08 704.253 34.288 707.469 34.288C709.821 34.288 711.933 34.744 713.805 35.656C715.725 36.568 717.285 37.84 718.485 39.472C719.685 41.056 720.357 42.88 720.501 44.944V60.064C720.357 62.128 719.685 63.976 718.485 65.608C717.333 67.192 715.797 68.44 713.877 69.352C711.957 70.264 709.821 70.72 707.469 70.72ZM709.701 60.784C712.053 60.784 713.949 60.016 715.389 58.48C716.829 56.896 717.549 54.904 717.549 52.504C717.549 50.872 717.213 49.432 716.541 48.184C715.917 46.936 715.005 45.976 713.805 45.304C712.653 44.584 711.309 44.224 709.773 44.224C708.237 44.224 706.869 44.584 705.669 45.304C704.517 45.976 703.581 46.936 702.861 48.184C702.189 49.432 701.853 50.872 701.853 52.504C701.853 54.088 702.189 55.504 702.861 56.752C703.533 58 704.469 58.984 705.669 59.704C706.869 60.424 708.213 60.784 709.701 60.784ZM717.117 70V60.568L718.773 52.072L717.117 43.576V35.008H727.917V70H717.117ZM740.641 70V20.536H751.657V70H740.641ZM732.721 44.368V35.008H759.577V44.368H732.721ZM784.591 70.72C782.239 70.72 780.079 70.24 778.111 69.28C776.143 68.272 774.535 66.952 773.287 65.32C772.039 63.64 771.319 61.768 771.127 59.704V44.944C771.319 42.88 772.039 41.056 773.287 39.472C774.535 37.84 776.143 36.568 778.111 35.656C780.079 34.744 782.239 34.288 784.591 34.288C787.903 34.288 790.831 35.08 793.375 36.664C795.967 38.248 797.983 40.408 799.423 43.144C800.911 45.88 801.655 49 801.655 52.504C801.655 56.008 800.911 59.128 799.423 61.864C797.983 64.6 795.967 66.76 793.375 68.344C790.831 69.928 787.903 70.72 784.591 70.72ZM782.647 60.784C784.183 60.784 785.527 60.424 786.679 59.704C787.879 58.984 788.815 58 789.487 56.752C790.159 55.504 790.495 54.088 790.495 52.504C790.495 50.872 790.159 49.432 789.487 48.184C788.815 46.936 787.879 45.976 786.679 45.304C785.527 44.584 784.183 44.224 782.647 44.224C781.111 44.224 779.743 44.584 778.543 45.304C777.343 45.976 776.407 46.936 775.735 48.184C775.111 49.432 774.799 50.872 774.799 52.504C774.799 54.136 775.135 55.576 775.807 56.824C776.479 58.072 777.391 59.056 778.543 59.776C779.743 60.448 781.111 60.784 782.647 60.784ZM764.431 70V17.728H775.447V43.576L773.647 52.072L775.303 60.568V70H764.431ZM824.099 70.792C820.499 70.792 817.235 70 814.307 68.416C811.427 66.784 809.147 64.576 807.467 61.792C805.787 59.008 804.947 55.888 804.947 52.432C804.947 48.976 805.787 45.88 807.467 43.144C809.147 40.408 811.427 38.248 814.307 36.664C817.187 35.032 820.451 34.216 824.099 34.216C827.747 34.216 831.011 35.008 833.891 36.592C836.771 38.176 839.051 40.36 840.731 43.144C842.411 45.88 843.251 48.976 843.251 52.432C843.251 55.888 842.411 59.008 840.731 61.792C839.051 64.576 836.771 66.784 833.891 68.416C831.011 70 827.747 70.792 824.099 70.792ZM824.099 60.784C825.683 60.784 827.075 60.448 828.275 59.776C829.475 59.056 830.387 58.072 831.011 56.824C831.683 55.528 832.019 54.064 832.019 52.432C832.019 50.8 831.683 49.384 831.011 48.184C830.339 46.936 829.403 45.976 828.203 45.304C827.051 44.584 825.683 44.224 824.099 44.224C822.563 44.224 821.195 44.584 819.995 45.304C818.795 45.976 817.859 46.936 817.187 48.184C816.515 49.432 816.179 50.872 816.179 52.504C816.179 54.088 816.515 55.528 817.187 56.824C817.859 58.072 818.795 59.056 819.995 59.776C821.195 60.448 822.563 60.784 824.099 60.784ZM853.001 70V20.536H864.017V70H853.001ZM845.081 44.368V35.008H871.937V44.368H845.081ZM888.831 70.864C886.767 70.864 884.727 70.6 882.711 70.072C880.743 69.544 878.895 68.8 877.167 67.84C875.487 66.832 874.047 65.68 872.847 64.384L879.111 58.048C880.263 59.296 881.631 60.28 883.215 61C884.799 61.672 886.527 62.008 888.399 62.008C889.695 62.008 890.679 61.816 891.351 61.432C892.071 61.048 892.431 60.52 892.431 59.848C892.431 58.984 891.999 58.336 891.135 57.904C890.319 57.424 889.263 57.016 887.967 56.68C886.671 56.296 885.303 55.888 883.863 55.456C882.423 55.024 881.055 54.424 879.759 53.656C878.463 52.888 877.407 51.832 876.591 50.488C875.775 49.096 875.367 47.344 875.367 45.232C875.367 42.976 875.943 41.032 877.095 39.4C878.247 37.72 879.879 36.4 881.991 35.44C884.103 34.48 886.575 34 889.407 34C892.383 34 895.119 34.528 897.615 35.584C900.159 36.592 902.223 38.104 903.807 40.12L897.543 46.456C896.439 45.16 895.191 44.248 893.799 43.72C892.455 43.192 891.135 42.928 889.839 42.928C888.591 42.928 887.655 43.12 887.031 43.504C886.407 43.84 886.095 44.344 886.095 45.016C886.095 45.736 886.503 46.312 887.319 46.744C888.135 47.176 889.191 47.56 890.487 47.896C891.783 48.232 893.151 48.64 894.591 49.12C896.031 49.6 897.399 50.248 898.695 51.064C899.991 51.88 901.047 52.984 901.863 54.376C902.679 55.72 903.087 57.496 903.087 59.704C903.087 63.112 901.791 65.824 899.199 67.84C896.655 69.856 893.199 70.864 888.831 70.864ZM390.873 156L376.041 121.008H387.921L398.001 150.168H392.817L402.897 121.008H414.561L399.729 155.928L390.873 156ZM418.529 156V121.008H429.545V156H418.529ZM424.073 116.184C422.345 116.184 420.905 115.608 419.753 114.456C418.649 113.256 418.097 111.816 418.097 110.136C418.097 108.408 418.649 106.968 419.753 105.816C420.905 104.664 422.345 104.088 424.073 104.088C425.801 104.088 427.217 104.664 428.321 105.816C429.425 106.968 429.977 108.408 429.977 110.136C429.977 111.816 429.425 113.256 428.321 114.456C427.217 115.608 425.801 116.184 424.073 116.184ZM450.046 156.864C447.982 156.864 445.942 156.6 443.926 156.072C441.958 155.544 440.11 154.8 438.382 153.84C436.702 152.832 435.262 151.68 434.062 150.384L440.326 144.048C441.478 145.296 442.846 146.28 444.43 147C446.014 147.672 447.742 148.008 449.614 148.008C450.91 148.008 451.894 147.816 452.566 147.432C453.286 147.048 453.646 146.52 453.646 145.848C453.646 144.984 453.214 144.336 452.35 143.904C451.534 143.424 450.478 143.016 449.182 142.68C447.886 142.296 446.518 141.888 445.078 141.456C443.638 141.024 442.27 140.424 440.974 139.656C439.678 138.888 438.622 137.832 437.806 136.488C436.99 135.096 436.582 133.344 436.582 131.232C436.582 128.976 437.158 127.032 438.31 125.4C439.462 123.72 441.094 122.4 443.206 121.44C445.318 120.48 447.79 120 450.622 120C453.598 120 456.334 120.528 458.83 121.584C461.374 122.592 463.438 124.104 465.022 126.12L458.758 132.456C457.654 131.16 456.406 130.248 455.014 129.72C453.67 129.192 452.35 128.928 451.054 128.928C449.806 128.928 448.87 129.12 448.246 129.504C447.622 129.84 447.31 130.344 447.31 131.016C447.31 131.736 447.718 132.312 448.534 132.744C449.35 133.176 450.406 133.56 451.702 133.896C452.998 134.232 454.366 134.64 455.806 135.12C457.246 135.6 458.614 136.248 459.91 137.064C461.206 137.88 462.262 138.984 463.078 140.376C463.894 141.72 464.302 143.496 464.302 145.704C464.302 149.112 463.006 151.824 460.414 153.84C457.87 155.856 454.414 156.864 450.046 156.864ZM485.831 156.792C482.615 156.792 479.759 156.144 477.263 154.848C474.815 153.504 472.895 151.68 471.503 149.376C470.111 147.024 469.415 144.336 469.415 141.312V121.008H480.431V141.168C480.431 142.368 480.623 143.4 481.007 144.264C481.439 145.128 482.063 145.8 482.879 146.28C483.695 146.76 484.679 147 485.831 147C487.463 147 488.759 146.496 489.719 145.488C490.679 144.432 491.159 142.992 491.159 141.168V121.008H502.175V141.24C502.175 144.312 501.479 147.024 500.087 149.376C498.695 151.68 496.775 153.504 494.327 154.848C491.879 156.144 489.047 156.792 485.831 156.792ZM523.707 156.72C520.491 156.72 517.611 155.928 515.067 154.344C512.571 152.76 510.579 150.6 509.091 147.864C507.651 145.128 506.931 142.008 506.931 138.504C506.931 135 507.651 131.88 509.091 129.144C510.579 126.408 512.571 124.248 515.067 122.664C517.611 121.08 520.491 120.288 523.707 120.288C526.059 120.288 528.171 120.744 530.043 121.656C531.963 122.568 533.523 123.84 534.723 125.472C535.923 127.056 536.595 128.88 536.739 130.944V146.064C536.595 148.128 535.923 149.976 534.723 151.608C533.571 153.192 532.035 154.44 530.115 155.352C528.195 156.264 526.059 156.72 523.707 156.72ZM525.939 146.784C528.291 146.784 530.187 146.016 531.627 144.48C533.067 142.896 533.787 140.904 533.787 138.504C533.787 136.872 533.451 135.432 532.779 134.184C532.155 132.936 531.243 131.976 530.043 131.304C528.891 130.584 527.547 130.224 526.011 130.224C524.475 130.224 523.107 130.584 521.907 131.304C520.755 131.976 519.819 132.936 519.099 134.184C518.427 135.432 518.091 136.872 518.091 138.504C518.091 140.088 518.427 141.504 519.099 142.752C519.771 144 520.707 144.984 521.907 145.704C523.107 146.424 524.451 146.784 525.939 146.784ZM533.355 156V146.568L535.011 138.072L533.355 129.576V121.008H544.155V156H533.355ZM551.911 156V103.728H562.927V156H551.911ZM570.685 156V103.728H581.701V156H570.685ZM600.258 156.144L585.858 121.008H597.738L606.882 148.872H602.49L611.85 121.008H623.73L608.754 156.144H600.258ZM591.258 170.76L601.77 148.08L608.754 156.144L602.562 170.76H591.258Z" fill="url(#paint0_linear_3_667)"/>
<defs>
<linearGradient id="paint0_linear_3_667" x1="94.5" y1="86.5" x2="905.5" y2="86.5" gradientUnits="userSpaceOnUse">
<stop stop-color="#4B83FF"/>
<stop offset="1" stop-color="#B794F4"/>
</linearGradient>
</defs>
</svg>
